<?xml version="1.0" encoding="UTF-8" standalone="no"?>
<!-- Created with Inkscape (http://www.inkscape.org/) -->

<svg
   xmlns:dc="http://purl.org/dc/elements/1.1/"
   xmlns:cc="http://creativecommons.org/ns#"
   xmlns:rdf="http://www.w3.org/1999/02/22-rdf-syntax-ns#"
   xmlns:svg="http://www.w3.org/2000/svg"
   xmlns="http://www.w3.org/2000/svg"
   xmlns:sodipodi="http://sodipodi.sourceforge.net/DTD/sodipodi-0.dtd"
   xmlns:inkscape="http://www.inkscape.org/namespaces/inkscape"
   version="1.0"
   width="437.94366"
   height="430.8237"
   id="svg2488"
   inkscape:version="0.48.1 r9760"
   sodipodi:docname="black-kings.svg">
  <metadata
     id="metadata3071">
    <rdf:RDF>
      <cc:Work
         rdf:about="">
        <dc:format>image/svg+xml</dc:format>
        <dc:type
           rdf:resource="http://purl.org/dc/dcmitype/StillImage" />
        <dc:title></dc:title>
      </cc:Work>
    </rdf:RDF>
  </metadata>
  <sodipodi:namedview
     pagecolor="#ffffff"
     bordercolor="#666666"
     borderopacity="1"
     objecttolerance="10"
     gridtolerance="10"
     guidetolerance="10"
     inkscape:pageopacity="0"
     inkscape:pageshadow="2"
     inkscape:window-width="1600"
     inkscape:window-height="876"
     id="namedview3069"
     showgrid="false"
     inkscape:zoom="0.47519841"
     inkscape:cx="-25.786619"
     inkscape:cy="215.41185"
     inkscape:window-x="0"
     inkscape:window-y="24"
     inkscape:window-maximized="1"
     inkscape:current-layer="svg2488"
     fit-margin-top="0"
     fit-margin-left="0"
     fit-margin-right="0"
     fit-margin-bottom="0" />
  <defs
     id="defs2490" />
  <g
     id="g2524"
     transform="translate(234.32646,-82.9969)">
    <g
       id="g2582"
       transform="translate(-1.6317841e-6,560.00002)">
      <path
         inkscape:connector-curvature="0"
         style="fill:#000000"
         id="path2439"
         transform="translate(-267.35463,46.40875)"
         d="m 203.5746,-93.525513 c -35.66934,-2.272337 -64.83474,-9.042617 -89.8246,-20.851337 -12.58897,-5.94879 -11.64109,-2.79836 -8.43504,-28.03499 l 2.22319,-17.49999 -2.30581,-25.5 c -1.50744,-16.6707 -2.73743,-25.84626 -3.55237,-26.50001 -0.68561,-0.55001 -3.89394,-5.725 -7.12963,-11.5 -8.558749,-15.27552 -18.67559,-30.52794 -31.17479,-47 -14.761109,-19.45293 -18.91214,-25.73426 -23.55744,-35.64708 -9.296461,-19.83812 -9.05257,-38.33775 0.76773,-58.23252 3.567602,-7.22756 6.26857,-11.03431 11.77202,-16.59158 24.180679,-24.4171 60.95714,-26.95983 100.76544,-6.96689 28.37544,14.251 48.25519,30.61935 69.75987,57.43807 1.49884,1.86921 0.65778,-1.66316 -3.3334,-14 -7.64436,-23.62893 -9.00015,-30.81699 -8.95925,-47.5 0.0292,-11.92454 0.37098,-14.96361 2.30525,-20.5 5.14788,-14.73457 14.70558,-26.41125 25.87318,-31.60937 l 6.21024,-2.89062 0.0104,-19.75 0.0104,-19.75 -16.5,0 -16.5,0 0,-7.5 0,-7.5 16.5,0 16.5,0 0,-11.00004 0,-11 7.5,0 7.5,0 0,11 0,11.00004 16,0 16,0 0,7.5 0,7.5 -16,0 -16,0 0,19.88266 0,19.88262 5.75,2.80332 c 10.81017,5.27033 20.34309,17.08819 25.35423,31.43139 1.93426,5.53638 2.27602,8.57547 2.30525,20.5 0.0409,16.683 -1.31489,23.87108 -8.95925,47.5 -3.99117,12.33683 -4.83224,15.86922 -3.3334,14 21.50469,-26.81873 41.38442,-43.18707 69.75987,-57.43807 39.80829,-19.99294 76.58476,-17.45022 100.76544,6.96689 5.50344,5.55728 8.20442,9.36402 11.77202,16.59158 9.82031,19.89477 10.06419,38.39439 0.76773,58.23252 -4.64529,9.91283 -8.79633,16.19416 -23.55744,35.64708 -12.4992,16.47205 -22.61604,31.72449 -31.17479,47 -3.23568,5.77499 -6.44402,10.95 -7.12963,11.5 -0.81495,0.65374 -2.04493,9.82931 -3.55237,26.5 l -2.30581,25.50001 2.22318,17.5 c 3.19753,25.16947 4.00045,22.19226 -7.43503,27.56886 -14.04657,6.60426 -21.07571,9.14317 -35.89442,12.96497 -16.35804,4.218788 -35.91359,7.09259 -57.35558,8.4287 -18.98257,1.182863 -75.37592,1.13735 -94.4254,-0.07621 l 0,-3e-6 z" />
      <path
         inkscape:connector-curvature="0"
         style="fill:#ffffff"
         id="path2578"
         transform="translate(-267.35463,46.40875)"
         d="m 253,-270.1087 c 0,-0.93328 6.53047,-21.11859 14.51215,-44.85625 15.72928,-46.77914 18.13798,-55.72386 19.10518,-70.94689 1.23166,-19.38546 -3.42242,-34.46426 -13.83244,-44.81591 -7.339,-7.29785 -11.5493,-9.15165 -20.78489,-9.15165 -9.23558,-1e-5 -13.44588,1.8538 -20.78489,9.15165 -10.41002,10.35165 -15.0641,25.43046 -13.83244,44.81591 0.9672,15.22302 3.37591,24.16776 19.10518,70.94689 7.98168,23.73765 14.51215,43.92297 14.51215,44.85624 1e-5,0.93327 0.45,1.69687 1,1.69687 0.55001,-1e-5 1,-0.76359 1,-1.69687 l 0,10e-6 z" />
      <path
         inkscape:connector-curvature="0"
         style="fill:#ffffff"
         id="path2572"
         transform="translate(-267.35463,46.40875)"
         d="m 130.18236,-210.92567 c 21.65502,-6.17751 47.89189,-11.1436 74.81764,-14.16144 21.67908,-2.42979 72.32093,-2.42979 94,0 26.92576,3.01784 53.16262,7.98393 74.81764,14.16143 6.77471,1.9326 13.15268,3.51384 14.17328,3.51384 3.55527,-10e-6 7.96364,-5.18313 15.13916,-17.79978 10.21384,-17.95889 19.78725,-32.45415 32.49437,-49.20022 14.35541,-18.91828 18.9625,-25.81241 22.57786,-33.78591 15.22691,-33.58222 -0.66759,-71.56617 -34.70231,-82.93001 -7.16365,-2.39188 -9.46362,-2.6693 -22,-2.65368 -11.85781,0.0147 -15.46492,0.41126 -23.57377,2.59121 -26.06896,7.00828 -51.66541,22.58833 -74.39956,45.28549 -13.22269,13.20119 -22.78272,25.93179 -30.43482,40.52851 -5.51711,10.52413 -10.12216,26.63483 -14.26909,49.92016 l -2.32276,13.04253 -4.5,0 -4.5,0 -2.32275,-13.04253 c -4.14694,-23.28533 -8.75199,-39.39602 -14.2691,-49.92016 -7.6521,-14.59673 -17.21213,-27.32733 -30.43482,-40.52851 -22.73414,-22.69715 -48.33061,-38.2772 -74.39956,-45.28549 -8.10885,-2.17996 -11.71596,-2.57645 -23.57377,-2.59121 -12.53638,-0.0156 -14.83635,0.26181 -22,2.65368 -34.03472,11.36383 -49.92921,49.34779 -34.70231,82.93001 3.615359,7.9735 8.22245,14.86764 22.57786,33.78591 12.707121,16.74606 22.28054,31.24133 32.49437,49.20022 7.17552,12.61665 11.5839,17.79978 15.13916,17.79978 1.0206,-10e-6 7.39858,-1.58123 14.17328,-3.51384 l 0,1e-5 z" />
      <path
         inkscape:connector-curvature="0"
         style="fill:#ffffff"
         id="path2570"
         transform="translate(-267.35463,46.40875)"
         d="m 132.9234,-156.33952 c 23.28102,-8.56673 50.54521,-15.15012 77.5766,-18.73215 9.70352,-1.28585 20.22693,-1.72268 41.5,-1.72268 21.27308,1e-5 31.79649,0.43683 41.5,1.72268 27.17443,3.60098 54.28697,10.16225 77.9058,18.85328 12.11199,4.45684 14.83472,4.41384 17.46703,-0.27595 1.9763,-3.52103 0.75344,-7.56604 -2.9723,-9.8318 -4.61723,-2.80789 -32.41106,-11.78324 -48.29708,-15.59636 -31.52101,-7.56599 -52.14544,-9.96745 -85.60345,-9.96745 -39.69539,0 -71.45346,4.72909 -107.77555,16.04885 C 119.34243,-168.08664 114,-165.22363 114,-159.64388 c 0,2.68961 4.13243,7.23204 6.57929,7.23204 0.91861,-10e-6 6.47346,-1.76746 12.34411,-3.92769 l 0,1e-5 z" />
      <path
         inkscape:connector-curvature="0"
         style="fill:#ffffff"
         id="path2568"
         transform="translate(-267.35463,46.40875)"
         d="m 126.11168,-116.30199 c 27.66009,-12.51377 66.42071,-22.19868 100.19279,-25.03462 50.23112,-4.21806 103.69343,4.48031 150.1341,24.42698 l 8.40579,3.61035 5.07782,-2.57312 c 10.99382,-5.57099 4.7239,-10.80234 -26.42218,-22.0455 -33.50186,-12.09356 -75.75675,-19.47331 -111.5,-19.47331 -35.74324,-1e-5 -77.99813,7.37976 -111.5,19.47331 -30.8796,11.14696 -37.32653,16.43474 -26.75,21.94033 2.6125,1.35993 5.02526,2.49356 5.36168,2.51917 0.33643,0.0256 3.48643,-1.25401 7,-2.84359 z" />
      <path
         inkscape:connector-curvature="0"
         style="fill:#000000"
         id="path2580"
         transform="translate(-267.35463,46.40875)"
         d="m 243.68834,-318.16183 c -8.73996,-25.9914 -12.98286,-41.99598 -15.30986,-57.75001 -3.4696,-23.48967 1.21383,-41.56945 12.74503,-49.20044 3.56758,-2.36091 5.27179,-2.79956 10.87649,-2.79956 5.60471,-1e-5 7.30891,0.43866 10.87649,2.79956 15.02901,9.94573 17.72238,33.9454 8.1027,72.20044 -3.34029,13.28354 -17.93495,57.5 -18.97919,57.5 -0.3639,-1e-5 -4.10416,-10.2375 -8.31166,-22.75 l 0,10e-6 z" />
      <path
         inkscape:connector-curvature="0"
         style="fill:#000000"
         id="path2576"
         transform="translate(-267.35463,46.40875)"
         d="m 385,-226.54491 c -1.375,-0.55345 -9.25,-2.75964 -17.5,-4.90265 -28.695,-7.45376 -56.78872,-11.58217 -86.03319,-12.64269 l -17.03319,-0.6177 0.71686,-7.50506 c 4.02102,-42.09621 30.49784,-81.01903 75.74773,-111.35458 39.57802,-26.53312 74.1303,-29.93849 96.7093,-9.53136 12.39466,11.20242 18.00324,31.70363 13.93068,50.9212 -2.93282,13.83945 -8.74653,23.82996 -31.74354,54.5495 -6.29281,8.40595 -15.2098,21.34347 -19.81554,28.75 -8.80476,14.15903 -9.34282,14.60204 -14.97911,12.33335 l 0,-10e-6 z" />
      <path
         inkscape:connector-curvature="0"
         style="fill:#000000"
         id="path2574"
         transform="translate(-267.35463,46.40875)"
         d="m 104.06905,-238.8008 c -4.63223,-7.44913 -13.57089,-20.42148 -19.8637,-28.82745 -17.811413,-23.7926 -21.95803,-29.97896 -26.28868,-39.22033 -9.081392,-19.37919 -9.16593,-37.78143 -0.25152,-54.74559 7.94057,-15.11092 25.29989,-24.81767 44.38337,-24.81767 22.75148,-1e-5 52.32254,13.80688 81.03589,37.83607 33.26042,27.83448 52.37906,60.91407 55.77924,96.5108 l 0.73102,7.65314 -10.04732,0.0103 c -28.21539,0.029 -68.44584,5.95074 -99.04735,14.5794 -7.15,2.01606 -14.12696,3.86799 -15.50436,4.11538 -2.27558,0.4087 -3.27379,-0.78752 -10.92659,-13.09406 z" />
    </g>
  </g>
</svg>
