<?xml version="1.0" encoding="UTF-8" standalone="no"?>
<!-- Created with Inkscape (http://www.inkscape.org/) -->

<svg
   xmlns:dc="http://purl.org/dc/elements/1.1/"
   xmlns:cc="http://creativecommons.org/ns#"
   xmlns:rdf="http://www.w3.org/1999/02/22-rdf-syntax-ns#"
   xmlns:svg="http://www.w3.org/2000/svg"
   xmlns="http://www.w3.org/2000/svg"
   xmlns:sodipodi="http://sodipodi.sourceforge.net/DTD/sodipodi-0.dtd"
   xmlns:inkscape="http://www.inkscape.org/namespaces/inkscape"
   height="72"
   id="svg1"
   inkscape:version="0.48.1 r9760"
   sodipodi:docname="icon-knight-72.svg"
   sodipodi:version="0.32"
   width="72"
   inkscape:output_extension="org.inkscape.output.svg.inkscape"
   version="1.0"
   inkscape:export-filename="/home/john/workspace/ChessTimer/asset-src/icon/icon-knight-72.png"
   inkscape:export-xdpi="90"
   inkscape:export-ydpi="90">
  <metadata
     id="metadata3">
    <rdf:RDF>
      <cc:Work
         rdf:about="">
        <dc:title></dc:title>
        <dc:description />
        <dc:subject>
          <rdf:Bag>
            <rdf:li />
            <rdf:li>game</rdf:li>
            <rdf:li>chess</rdf:li>
            <rdf:li>symbols</rdf:li>
            <rdf:li>board</rdf:li>
            <rdf:li>recreation</rdf:li>
            <rdf:li>fonts</rdf:li>
          </rdf:Bag>
        </dc:subject>
        <dc:publisher>
          <cc:Agent
             rdf:about="http://www.openclipart.org">
            <dc:title>Igor Krizanovskij</dc:title>
          </cc:Agent>
        </dc:publisher>
        <dc:creator>
          <cc:Agent>
            <dc:title>Igor Krizanovskij</dc:title>
          </cc:Agent>
        </dc:creator>
        <dc:rights>
          <cc:Agent>
            <dc:title>Igor Krizanovskij</dc:title>
          </cc:Agent>
        </dc:rights>
        <dc:date />
        <dc:format>image/svg+xml</dc:format>
        <dc:type
           rdf:resource="http://purl.org/dc/dcmitype/StillImage" />
        <cc:license
           rdf:resource="http://web.resource.org/cc/PublicDomain" />
        <dc:language>en</dc:language>
      </cc:Work>
      <cc:License
         rdf:about="http://web.resource.org/cc/PublicDomain">
        <cc:permits
           rdf:resource="http://web.resource.org/cc/Reproduction" />
        <cc:permits
           rdf:resource="http://web.resource.org/cc/Distribution" />
        <cc:permits
           rdf:resource="http://web.resource.org/cc/DerivativeWorks" />
      </cc:License>
    </rdf:RDF>
  </metadata>
  <defs
     id="defs3">
    <inkscape:path-effect
       effect="spiro"
       id="path-effect3782"
       is_visible="true" />
    <inkscape:path-effect
       effect="spiro"
       id="path-effect3778"
       is_visible="true" />
    <inkscape:perspective
       sodipodi:type="inkscape:persp3d"
       inkscape:vp_x="0 : 187.5 : 1"
       inkscape:vp_y="0 : 1000 : 0"
       inkscape:vp_z="1052.3622 : 187.5 : 1"
       inkscape:persp3d-origin="526.18109 : 125 : 1"
       id="perspective20" />
  </defs>
  <sodipodi:namedview
     bordercolor="#666666"
     borderopacity="1.0"
     id="base"
     inkscape:current-layer="layer1"
     inkscape:cx="35.852012"
     inkscape:cy="35.524233"
     inkscape:pageopacity="0.0"
     inkscape:pageshadow="2"
     inkscape:window-height="841"
     inkscape:window-width="1270"
     inkscape:window-x="16"
     inkscape:window-y="24"
     inkscape:zoom="10.356757"
     pagecolor="#ffffff"
     showgrid="false"
     inkscape:snap-object-midpoints="true"
     inkscape:snap-to-guides="true"
     fit-margin-top="0"
     fit-margin-left="0"
     fit-margin-right="0"
     fit-margin-bottom="0"
     inkscape:window-maximized="0" />
  <g
     id="layer1"
     inkscape:groupmode="layer"
     inkscape:label="Layer 1"
     transform="translate(-711.91958,-115.45963)">
    <path
       d="m 737.59808,148.08511 c 1.04343,0 2.14947,-0.6052 3.31812,-1.81558 0.62607,-0.62606 0.9391,-1.16865 0.9391,-1.62777 0,-0.54259 -0.50085,-0.81388 -1.50255,-0.81388 -1.16865,0 -2.14948,0.52172 -2.94249,1.56515 -0.41739,0.50086 -0.62607,1.02258 -0.62607,1.56517 0,0.75127 0.27129,1.12691 0.81389,1.12691 m -1.06432,-13.71077 c 0.0835,0 0.29216,-0.0209 0.62607,-0.0626 1.87819,0 3.88159,0.62608 6.0102,1.8782 0.25042,0.16695 0.37564,0.25042 0.37564,0.25042 1.21039,-1.96166 2.12861,-2.94249 2.75467,-2.94249 1.3356,0.75127 2.2121,1.56515 2.62947,2.44164 0.20869,0.41738 0.52172,1.29386 0.93909,2.62946 0.3339,-0.0835 0.6678,-0.1252 1.00171,-0.1252 3.50595,0 6.84494,2.14948 10.01701,6.44844 3.79811,4.96677 5.69717,11.72824 5.69717,20.28443 0,1.91993 -0.0835,3.65203 -0.25042,5.19633 l -26.41987,0 c 0.0835,-2.79642 1.10604,-5.44675 3.06771,-7.95101 0.20869,-0.33389 0.50085,-0.70953 0.87649,-1.1269 1.54429,-1.96166 2.48338,-3.46422 2.81729,-4.50766 0.16694,-0.54258 0.29216,-1.10604 0.37563,-1.69037 -2.75467,1.08518 -4.82068,2.69208 -6.19802,4.82069 -0.62607,1.04343 -1.31473,2.12862 -2.06601,3.25553 -0.20869,0.3339 -0.52173,0.50085 -0.93909,0.50085 -1.04344,0 -1.56516,-0.64693 -1.56516,-1.9408 -0.41738,0.54259 -0.89736,0.81389 -1.43994,0.81389 0,0 -0.41738,-0.10435 -1.25213,-0.31303 -1.79471,-0.45913 -3.0677,-1.25214 -3.81899,-2.37905 -0.25042,-0.37563 -0.52171,-0.87648 -0.81388,-1.50254 0.29217,-1.79472 1.73211,-5.36328 4.31984,-10.70569 1.87819,-3.83985 3.04684,-6.59453 3.50595,-8.26402 0.0418,-0.37564 0.0626,-0.91822 0.0626,-1.62777 0,-0.58432 -0.10435,-1.71123 -0.31304,-3.38073 m -3.75637,21.9748 c -1.0017,0 -1.66951,0.43824 -2.0034,1.31473 -0.0835,0.20869 -0.12522,0.41737 -0.12522,0.62607 0,0.16694 0.0626,0.37563 0.18782,0.62605 1.08518,0 1.75298,-0.45911 2.0034,-1.37733 0.0418,-0.12521 0.0626,-0.2713 0.0626,-0.43824 0,-0.0835 -0.0417,-0.3339 -0.12521,-0.75128 m 30.73968,9.64137 0,-2.31643 c 0,-6.80322 -1.7321,-12.37518 -5.19631,-16.71588 -3.00511,-3.75638 -5.73892,-5.63457 -8.20143,-5.63457 0,0 -0.25043,-0.0417 -0.75128,-0.12521 -0.0835,0.0417 -0.14608,0.0835 -0.18782,0.12521 -0.54258,0 -0.81387,0.22956 -0.81387,0.68866 0,0.16696 0.12521,0.37565 0.37563,0.62608 2.25382,0.20868 4.71634,1.81557 7.38754,4.82068 3.38074,3.92332 5.07112,9.59963 5.07112,17.0289 0,0 0,0.12522 0,0.37564 0,1.83646 0.3965,2.75469 1.18951,2.75469 0.66781,0 1.04345,-0.5426 1.12691,-1.62777"
       id="path1726"
       style="font-size:12px;font-style:normal;font-weight:normal;fill:#000000;fill-opacity:1;stroke:#cc0000;stroke-width:0.48494453pt;stroke-linecap:butt;stroke-linejoin:miter;stroke-opacity:0;font-family:Bitstream Vera Sans"
       inkscape:connector-curvature="0" />
    <path
       sodipodi:type="arc"
       style="fill:none;stroke:#cc0000;stroke-width:11.39999961999999911;stroke-linecap:round;stroke-linejoin:miter;stroke-miterlimit:4.11999988999999989;stroke-opacity:1;stroke-dasharray:none;stroke-dashoffset:274.80008129999998800"
       id="path3766"
       sodipodi:cx="38.794529"
       sodipodi:cy="39.383297"
       sodipodi:rx="62.095562"
       sodipodi:ry="62.095562"
       d="m 100.89009,39.383297 a 62.095562,62.095562 0 1 1 -124.191123,0 62.095562,62.095562 0 1 1 124.191123,0 z"
       transform="matrix(0.48494453,0,0,0.48494453,728.9584,132.83668)" />
    <path
       style="fill:none;stroke:#cc0000;stroke-width:5.77083969;stroke-linecap:round;stroke-linejoin:round;stroke-miterlimit:4;stroke-opacity:1;stroke-dasharray:none"
       d="m 734.68975,133.65641 13.08184,18.27898 10.36457,-10.77613"
       id="path3780"
       inkscape:path-effect="#path-effect3782"
       inkscape:original-d="m 734.68975,133.65641 13.08184,18.27898 10.36457,-10.77613"
       inkscape:connector-curvature="0" />
  </g>
</svg>
