<?xml version="1.0" encoding="UTF-8" standalone="no"?>
<!-- Created with Inkscape (http://www.inkscape.org/) -->

<svg
   xmlns:dc="http://purl.org/dc/elements/1.1/"
   xmlns:cc="http://creativecommons.org/ns#"
   xmlns:rdf="http://www.w3.org/1999/02/22-rdf-syntax-ns#"
   xmlns:svg="http://www.w3.org/2000/svg"
   xmlns="http://www.w3.org/2000/svg"
   xmlns:sodipodi="http://sodipodi.sourceforge.net/DTD/sodipodi-0.dtd"
   xmlns:inkscape="http://www.inkscape.org/namespaces/inkscape"
   version="1.0"
   width="449.24698"
   height="439.82367"
   id="svg2488"
   inkscape:version="0.48.1 r9760"
   sodipodi:docname="kings.svg">
  <metadata
     id="metadata3117">
    <rdf:RDF>
      <cc:Work
         rdf:about="">
        <dc:format>image/svg+xml</dc:format>
        <dc:type
           rdf:resource="http://purl.org/dc/dcmitype/StillImage" />
        <dc:title></dc:title>
      </cc:Work>
    </rdf:RDF>
  </metadata>
  <sodipodi:namedview
     pagecolor="#ffffff"
     bordercolor="#666666"
     borderopacity="1"
     objecttolerance="10"
     gridtolerance="10"
     guidetolerance="10"
     inkscape:pageopacity="0"
     inkscape:pageshadow="2"
     inkscape:window-width="640"
     inkscape:window-height="480"
     id="namedview3115"
     showgrid="false"
     fit-margin-top="0"
     fit-margin-left="0"
     fit-margin-right="0"
     fit-margin-bottom="0"
     inkscape:zoom="0.47519841"
     inkscape:cx="463.73027"
     inkscape:cy="219.91183"
     inkscape:window-x="7"
     inkscape:window-y="0"
     inkscape:window-maximized="0"
     inkscape:current-layer="svg2488" />
  <defs
     id="defs2490" />
  <g
     id="g2562"
     transform="translate(-240.78725,-41.714272)">
    <path
       inkscape:connector-curvature="0"
       style="fill:#000000"
       id="path2443"
       transform="translate(213.41083,9.6260986)"
       d="m 203.30591,470.98099 c -37.81827,-2.37657 -72.44073,-10.98367 -98.54455,-24.49807 -7.31457,-3.78686 -9.66947,-5.52126 -10.40436,-7.66281 -0.669942,-1.95226 -0.22661,-8.73065 1.50428,-23 l 2.454157,-20.23194 -2.372467,-26.5 -2.372467,-26.5 -6.019127,-10.5 C 79.26368,317.63076 69.35171,302.9647 57.47634,287.58818 c -16.930621,-21.92221 -22.60282,-31.40079 -27.2282,-45.5 -2.39409,-7.29772 -2.79938,-10.19734 -2.86537,-20.5 -0.06361,-9.93126 0.32707,-13.29296 2.26617,-19.5 7.194471,-23.02933 22.73444,-40.01314 43.51232,-47.55511 19.538667,-7.09215 37.90879,-7.04499 60.81559,0.15615 22.26588,6.99965 50.12593,23.892 70.47298,42.72978 l 5.92137,5.48214 -2.20979,-8.76534 c -4.56674,-18.11434 -5.42134,-31.97188 -2.76486,-44.83272 2.95058,-14.28468 9.7962,-27.04911 18.62197,-34.72277 4.16939,-3.62512 16.93799,-10.49214 19.50918,-10.49214 0.98893,0 1.27821,-3.96067 1.27821,-17.499999 l 0,-17.499998 -16.5,0 -16.5,0 0,-7.5 0,-7.5 16.5,0 16.5,0 0,-11 0,-11 7.5,0 7.5,0 0,11 0,11 16,0 16,0 0,7.5 0,7.5 -16,0 -16,0 0.001,17.25 10e-4,17.249997 7.24894,3.26259 c 16.30843,7.34011 26.88105,21.74503 31.15826,42.45232 2.65648,12.86084 1.80188,26.71838 -2.76485,44.83272 l -2.20979,8.76534 5.92136,-5.48213 c 14.7663,-13.671 34.55014,-27.10066 52.14391,-35.3963 23.93279,-11.28458 46.5168,-15.2206 65.1953,-11.36245 17.16201,3.54491 27.949,9.15079 39.3078,20.42792 16.38471,16.26677 24.0286,40.90957 19.5527,63.03515 -3.29239,16.27529 -10.0428,28.63359 -29.2039,53.46485 -11.89211,15.41124 -21.8172,30.08993 -30.0906,44.5027 l -6.02591,10.49729 -2.3725,26.5 -2.3724,26.5 2.4541,20.23193 c 1.73091,14.26936 2.17431,21.04774 1.50431,23.00001 -0.73489,2.14156 -3.0898,3.87594 -10.4043,7.66281 -26.94769,13.95126 -60.12521,22.01798 -101.04459,24.56779 -18.93515,1.17991 -75.276,1.13834 -94.5,-0.0697 l 0,10e-6 z" />
    <path
       inkscape:connector-curvature="0"
       style="fill:#ffffff"
       id="path2397"
       transform="translate(213.41083,9.6260986)"
       d="m 253.09496,266.3382 c 0.28727,-0.96253 4.19845,-12.32502 8.69152,-25.25002 16.95468,-48.77279 18.55623,-54.60378 19.64957,-71.54046 1.11339,-17.24722 -2.20013,-29.14521 -10.85505,-38.97772 -5.02485,-5.70854 -12.47305,-9.46229 -18.77509,-9.46229 -6.30204,0 -13.75023,3.75375 -18.77509,9.46229 -8.65492,9.83251 -11.96843,21.73049 -10.85505,38.97772 1.09334,16.93669 2.6949,22.76767 19.64957,71.54046 4.49308,12.925 8.40425,24.28749 8.69152,25.25 0.28727,0.96248 0.86734,1.75 1.28905,1.75 0.42171,-1e-5 1.00178,-0.78751 1.28905,-1.75 l 0,2e-5 z" />
    <path
       inkscape:connector-curvature="0"
       style="fill:#ffffff"
       id="path2395"
       transform="translate(213.41083,9.6260986)"
       d="m 401.72531,322.02051 c 6.47399,-11.73237 19.86329,-31.47155 32.17389,-47.43233 18.7006,-24.24551 23.6403,-34.17461 24.599,-49.44588 1.061,-16.90156 -3.9554,-30.54113 -15.442,-41.98654 -11.94191,-11.8992 -25.8594,-16.73509 -45.2503,-15.7231 -18.11931,0.94563 -34.2325,6.50145 -54.866,18.91773 -33.4439,20.12502 -63.63345,55.07128 -71.81225,83.12709 -1.97438,6.77269 -6.39928,26.83532 -8.65351,39.23514 l -0.56801,3.12445 13.19989,0.66345 c 38.40267,1.93029 87.70668,8.90536 113.19988,16.0145 8.47699,2.36394 8.5511,2.3281 13.4194,-6.49451 l 10e-6,0 z" />
    <path
       inkscape:connector-curvature="0"
       style="fill:#ffffff"
       id="path2393"
       transform="translate(213.41083,9.6260986)"
       d="m 125.30591,326.22357 c 29.26173,-6.69109 63.08126,-11.37234 95.5,-13.21898 11.275,-0.64223 20.60066,-1.24932 20.72368,-1.34908 0.50721,-0.41125 -6.829,-34.67915 -9.02965,-42.17803 -8.25368,-28.12508 -38.39639,-63.00946 -71.82802,-83.12709 -20.63345,-12.41627 -36.74669,-17.9721 -54.86601,-18.91773 -19.390888,-1.01199 -33.30834,3.8239 -45.25031,15.7231 -11.494809,11.45366 -16.52792,25.14405 -15.41591,41.93242 1.0281,15.52184 6.18656,25.80323 25.34467,50.51484 11.68382,15.07068 24.98215,34.75393 31.36886,46.42998 5.15383,9.42212 2.58292,8.96273 23.45269,4.19058 l 0,-1e-5 z" />
    <path
       inkscape:connector-curvature="0"
       style="fill:#ffffff"
       id="path2391"
       transform="translate(213.41083,9.6260986)"
       d="m 156.67171,372.63257 c 71.88748,-15.98808 147.94759,-13.46368 218.85689,7.26376 l 12.95419,3.78665 1.2135,-15.04739 c 0.66751,-8.27609 1.45061,-16.43161 1.74021,-18.1234 l 0.5267,-3.07597 -14.32871,-3.25095 c -82.01018,-18.60684 -169.64698,-18.60684 -251.65722,-10e-6 l -14.32865,3.25096 0.52668,3.07596 c 0.28967,1.6918 1.07275,9.84732 1.74018,18.1234 l 1.21352,15.0474 12.95424,-3.78665 c 7.12484,-2.08265 19.98965,-5.35134 28.58846,-7.26375 l 1e-5,-1e-5 z" />
    <path
       inkscape:connector-curvature="0"
       style="fill:#ffffff"
       id="path2389"
       transform="translate(213.41083,9.6260986)"
       d="m 153.30591,409.07761 c 36.73268,-9.52145 59.76415,-12.42721 98.5,-12.42721 21.19805,1e-5 32.21503,0.45519 43,1.77665 27.6345,3.38598 58.41639,10.38339 83.26269,18.92749 9.915,3.40957 12.6594,4.03681 12.3001,2.81122 -0.25431,-0.86769 -0.7675,-4.83259 -1.1402,-8.81092 -0.37269,-3.97832 -1.1828,-7.89692 -1.8002,-8.70797 -1.38121,-1.81461 -23.6611,-8.3722 -42.2834,-12.44519 -70.20331,-15.35454 -145.79081,-12.88456 -214.17795,6.99868 -7.51357,2.18454 -14.16613,4.63547 -14.78347,5.44651 -0.61734,0.81104 -1.42741,4.72964 -1.80015,8.70797 -0.37275,3.97834 -0.88586,7.94324 -1.14024,8.81092 -0.35931,1.22558 2.38512,0.59836 12.30015,-2.81122 7.01947,-2.41385 19.51267,-6.13846 27.76267,-8.27694 l 0,10e-6 z" />
    <path
       inkscape:connector-curvature="0"
       style="fill:#ffffff"
       id="path2387"
       transform="translate(213.41083,9.6260986)"
       d="m 297.80591,453.05072 c 19.40559,-1.20923 39.53763,-3.98744 53.49999,-7.38298 12.46149,-3.03053 27.9308,-8.56614 26.8274,-9.60003 -1.1952,-1.11994 -21.1416,-7.40027 -32.8274,-10.33604 -32.90129,-8.26564 -56.65839,-11.08127 -93.49999,-11.08127 -36.8416,1e-5 -60.59871,2.81562 -93.5,11.08127 -11.68574,2.93578 -31.63219,9.21611 -32.82741,10.33604 -1.10254,1.03308 14.35745,6.56681 26.82741,9.60256 13.07244,3.18245 34.74615,6.28929 51,7.31071 19.224,1.20807 75.56485,1.24965 94.5,0.0697 l 0,10e-6 z" />
  </g>
</svg>
